/* XPM */
static char *out[] = {
/* columns rows colors chars-per-pixel */
"64 64 53 1 ",
"  c None",
". c #D39F35",
"X c #D29D3E",
"o c #D4A237",
"O c #D6A53B",
"+ c #D8A73C",
"@ c #D7A83C",
"# c #DAAB3D",
"$ c #DFB13E",
"% c #E0B23F",
"& c #D39F41",
"* c #D6A343",
"= c #D9A743",
"- c #DBAC43",
"; c #DEB242",
": c #DFB348",
"> c #E1B542",
", c #E4BA45",
"< c #E8BF46",
"1 c #E1B549",
"2 c #E4BD48",
"3 c #E6C146",
"4 c #EBC346",
"5 c #EFC846",
"6 c #E6C349",
"7 c #EBC54A",
"8 c #EECA4D",
"9 c #F2CA46",
"0 c #F2CC4B",
"q c #EED24F",
"w c #FED947",
"e c #F6D24D",
"r c #FAD64B",
"t c #F4DB4E",
"y c #FEDC4D",
"u c #EFCC50",
"i c #F0CD52",
"p c #EED351",
"a c #F3D551",
"s c #F8D750",
"d c #F3DC54",
"f c #FFDE51",
"g c #F3DB58",
"h c #F6E156",
"j c #F9E556",
"k c #FEEE57",
"l c #F7E259",
"z c #F9E659",
"x c #FCED5C",
"c c #FFF057",
"v c #FFF15D",
"b c #FDEF60",
"n c #FFF261",
/* pixels */
"                                                                ",
"                                                                ",
"                                                                ",
"                                                                ",
"                                                                ",
"                         yyyyyywye00<%                          ",
"                      yyyyywyyyywyfyw9,>1-                      ",
"                   yfyyjyyyyyyywyfyyf457<-=XX                   ",
"                 syfyyyyyywywyyyyyyfy880872-==>                 ",
"                80sfyyyyywrw95rrerrye874887071>>                ",
"              87880yywye4<,%%,,;##%>688440i7u71==*              ",
"             770888rr4,%>$%>$$$$#O####>277800i71**O             ",
"            0870848<,,%>>%>%%$%,+#=@-@@o>7u8u887,#%%            ",
"           70u7u42%>;$>;>>>$%$,;#OOO#@@Oo#27uu8iu1>>>           ",
"          0i7i87,##$>$2,>>>>,;:;+O#@O@@#++#>60i88i-**&          ",
"         087iu7>##;;>,;7add<$:2;#-2p,-=@+o++#7700e0=**=         ",
"        re00iu>#####$;7vvvng:;:;#pnnvd-@-oooO#48sse5,1>%        ",
"       seesiu,$##$$:268vvnnl8qu63zvnnn62:3:@oo$0ieee7---        ",
"       sreee,++##3zxxnnnvvvnnnnnxvnnnnvvvvx;++$4seee0=&X*       ",
"       see05>#+##pnnnnnnnnnnnnnnnnnnnvnnvvv3$%$>0eees<-==       ",
"      eeee0,%%###hbbnvvnvnnnnvnnnnnnvcnnnnnq,>>>,is0u6,>>>      ",
"      eeee7>%>>%#:dlglznvnnnnnnnbnnnvvxzzzl31,,>><8007,==-      ",
"     eeees,>,>>>$$;;;;6nnnc8666;;6xnnv3#$;:;>>>;1>78078*===     ",
"     eeee5>>%%>>;;#;--6xvxx23:;@@@dbxz;$$,:;>;;1;;<8uuu11->     ",
"    00ee0<$%%%>>;;,;;;;38q6;;;$#@@@36$#;,%>>>;;;;;,8u8i2>>>     ",
"    07700%%%>%>>$$;qghldphhhzhtdhttqtqpq%#$;;$;$>;>87882=*=*    ",
"    8078<>>%11,,$$;hnnvvvvnvvvvvvcvvvvvcd;->;$;>>>;<7iu7=&*&    ",
"    7007%$>>>,1>,$$xnvvvvvvvnvccvvvvnvvvz>>>;>,1>>;<u888,>>#    ",
"    0iu7<$>>>>>>;;$cnvvxhhhhhdhdhjjzxvvvk2>>>>>;>>><88882-;;    ",
"    u008<>>%%>>>;,,xnvvd,:;#;;$@$$,;6vvvx4>>>>><>>>>8ii81**=    ",
"    8u87>>>%%>>%%,3xnvvzqq7866,66q6qtvvck7>>>11>>,>>8i081---    ",
"    8078<>%%>>>%$$%kvvcccvvvvvcvvvvvvvvcx4>>>,,>1>>,78i861>1    ",
"    7707,>,>>%%$$$$zvvcvvvxvvcvvxvvvvvcvn7:>>>>>>>%>88882---    ",
"    08ii,1,,>>%>$$,jvvczq6qq666qqppthcvvx3$,1,>,,1>,87881&*&    ",
"    i707<1>%#%%%$$;jvvvt;;;;;-::@$;;6vcvv3$;$$>%>>%,7i80>#--    ",
"    0877<>%%$%$$$$;tvnvxzzgdgpglppdhxvvvv7$$$%%%>>$<7077>$>>    ",
"    78004>>>%%$>$##tvvvvvvvnnnnnvvvvnnvnk,$$$$$$>%>48877-===    ",
"    i7876,>##;#>$$#qvvcvvvnnnnnnnvvvvvvvx%,$,;2,>%%880u7**==    ",
"     u0871>#;;;$$$$;6666666dnnnnvdq666663$>>,;%,>>2eees<11>-    ",
"     0780<>>;;;;$$6q6266666pvvnvvp6666;2;,>%;,$$%>4eees21>>     ",
"     888871;-$$>;qxxxxvbvvbnnvvvvvvxxxxxzz;$$;,$%%9eeas-=&=     ",
"     00780<>>%%,:qvvvvvvnvvvvvnnvvvvnvcvvnh$;;;,><eess<==*      ",
"      88ie0,>>>>;6cvnvvvnvvvvnvvnvvnnvvvvvj$$;;$%esee0,->>      ",
"      iseee7>>%##;lnvxvvccncvvnnnvnvvnvcvvd##$;$5eeee0:---      ",
"       eeesa3;@o@=;;:3263,6tnvvnndqq788866;####,eeee0:&==       ",
"        seee0;@O@@@@#@o@Oo@$xvvvv6$$;;,$;;##@#;70eee7--:-       ",
"        seeei7;O@o@@#@@@OOO@qxzzd,;3,$,;#;@##$68099e,,,1        ",
"         e00083;@@@-@@@@@O@=;,,,::3:;,;;$##-;6qq888>=-=         ",
"          807707-+##O-++OOO-->>>,1>,,>>>>=#-7808881=&=          ",
"           808iu71+#-@+#ooO@>>>,>>,,11,>,><7888i8<1-,           ",
"            88uuu871@#@OooO=1,>1>>>>,>>>,47878i7,->,            ",
"             8iiiu872;#@OO@@>,>>>>,>>,,er8i88771===             ",
"              0iuu877746>#+#,>1,,>>40esywe7087>O*=              ",
"               u0iu8u00eyr099080essffffyyr8u71>>-               ",
"                 i88uiieyyyywyfffffffyfwyw02>>1                 ",
"                   i7uafyyyyfyffffffyyyy02=**                   ",
"                     8effyfwyfyyffyyyw04-:=                     ",
"                         yfjfyfysy004,>                         ",
"                                                                ",
"                                                                ",
"                                                                ",
"                                                                ",
"                                                                ",
"                                                                "
};
