/* XPM */
static char *out[] = {
/* columns rows colors chars-per-pixel */
"64 64 90 1 ",
"  c None",
". c #19782C",
"X c #19792C",
"o c #19792D",
"O c #1A782C",
"+ c #1A792C",
"@ c #1A792D",
"# c #1A7A2D",
"$ c #1B7A2D",
"% c #1A7B2D",
"& c #1B7B2D",
"* c #1A792E",
"= c #1A7A2E",
"- c #1B7A2E",
"; c #1A7B2E",
": c #1B7B2E",
"> c #1B7B2F",
", c #1C7B2F",
"< c #1B7C2E",
"1 c #1B7D2E",
"2 c #1B7C2F",
"3 c #1B7D2F",
"4 c #1B7E2F",
"5 c #1B7F2F",
"6 c #1C7C2E",
"7 c #1C7D2E",
"8 c #1C7C2F",
"9 c #1C7D2F",
"0 c #1D7D2F",
"q c #1C7E2E",
"w c #1C7E2F",
"e c #1D7E2F",
"r c #1C7F2F",
"t c #1B7C30",
"y c #1B7D30",
"u c #1B7E30",
"i c #1C7C30",
"p c #1C7D30",
"a c #1D7D30",
"s c #1C7D31",
"d c #1C7E30",
"f c #1D7E30",
"g c #1C7F30",
"h c #1D7F30",
"j c #1C7E31",
"k c #1D7E31",
"l c #1C7F31",
"z c #1D7F31",
"x c #1E7F31",
"c c #1D7E32",
"v c #1C7F32",
"b c #1D7F32",
"n c #1C8030",
"m c #1D8030",
"M c #1C8031",
"N c #1D8031",
"B c #1D8131",
"V c #1E8031",
"C c #1E8131",
"Z c #1C8032",
"A c #1D8032",
"S c #1D8132",
"D c #1D8133",
"F c #1E8032",
"G c #1E8132",
"H c #1E8133",
"J c #1D8232",
"K c #1D8233",
"L c #1E8232",
"P c #1E8233",
"I c #1F8233",
"U c #1E8333",
"Y c #1F8333",
"T c #1E8234",
"R c #1E8334",
"E c #1F8334",
"W c #1F8335",
"Q c #1E8434",
"! c #1F8434",
"~ c #1F8534",
"^ c #1F8435",
"/ c #1F8535",
"( c #1F8636",
") c #208434",
"_ c #208535",
"` c #208536",
"' c #208636",
"] c #218636",
"[ c #208736",
"{ c #218736",
/* pixels */
"                                                                ",
"                                                                ",
"                                                                ",
"   JAMBlwNLlgNhMBfwnhd9fdVjd3yNN~KBdMrNnp8pgN9NmT3O,w:dhjm59    ",
"  N!AjPNCNAyZluyy2jSjAlA8y2lMjllSSAzdNd:#dAKPj3ll33lj3pllld8N   ",
"  p/AdHGIAAzAANhjSBNNNN8t9hNpdSNjdBhNdd93NGNGzppPNzA2z9dfzzdk   ",
"  lLPz9lzNzAFNgM                               djAdFzzz2pzdAN   ",
"  NNE!AdNAAzNdf1                                ZAANNAAGzNjzP   ",
"  PBPNSANgzSSN29                                AdNzk3pdAFGzA   ",
"  '~^EASAzzHG<:6        Nzp2j                   VAGGAwp9Nzddj   ",
"  /YFYdzdSzlfpp2      NdpzdzyU                  LAGGAGNzl999z   ",
"  SSdzNzNPdzdh28      yddpAdpSP                 SNAHAzzAFf99j   ",
"  GPGGNGAzzNAkzp      NzzdNzjSN                 zAEEG2kAGk8pN   ",
"  LPEGzzdlHFz9pe      kGzzAHAzA                 lAPGwddEGGX::   ",
"  NGAAFGdzPPdddA      dGGPAAzlC                 NNzAdzzGHG:X=   ",
"  LzPAGNNAlAzzNA       JGFAAgN                  d2zzdzNzNz<2d   ",
"  GAPSAz3<lNdAFG       VzSBNl                   p2:pdhdgdpddd   ",
"  zAzdSdz2:dAzzH         Mr                     Nzp22dpzzzAN2   ",
"  NAAddhzzf9dddl             AgjBBMN            Az2d9<d9AHRPz   ",
"  zdz$:NGA2dzgNM          dkzFdPNNGFNGALz1      Pp2<dzNzdzGES   ",
"  pzl:6zId33dzl9         hpfdkNPGGHzzddANzz     ad982dzzgzGpj   ",
"  zlgdN9jzhpp9p2        <dkddhNFNzNdddjzkHzQ    2zp2dgdzdFz<l   ",
"  SG_Ald;zdfp92d       zdzzddh9pxNzAzlZfgS!!    d2dzlNzdgz9gN   ",
"  Y`dzdNd2AdddzA      D_DpffpgNdNfzF    dANGS   928fPGF3dzd2z   ",
"  MzAGzd9p9zdjzz      !'Y2Ad2dAdzgjAw   JGzLg   dpzLENA2NYhdz   ",
"  PLzAN9dwdAFzGk     dP'Nzd992H9lfNN9    VSd#3  fd:dz9hpz8Nhk   ",
"  U9<29dgzpgGPPzjAN%9zGpjAy99AGzzNzz9N   A!:2z  dNAddzzjdzGAz   ",
"  (p:pz<zNNAPIAzdGz2zdS2w DpdNNzdENAzj    d29   NNzzlzzAzGFSz   ",
"  9::zzddzzzANFzAzzdNAD    dbjpNzNNzzd     g>   jddN9:dddzSAA   ",
"  Gd9dhNNfzzdNzNmjfzNc     SzNdHAPzNPgM         N9zzdzfNAPNzP   ",
"  o3:zGHNzzzzAzG            g9lzA99dddG         GNzdgAdAGUNzd   ",
"  Xp92:zHzzAAzNJ            kNp3E22pNNP         CSzp9NzzdzGSU   ",
"  Op.dYPAzdzAPEU            KPAzzddNNdN         NdfdzzzdzGkdG   ",
"  ipOpzHGpkzkGNA            BFzldNddAdNV        kdA9dpNAzzpAN   ",
"  2-28zHzdkzzNAz            zdzdzzz3d2NH        dw9lzSzSNhdP=   ",
"  :@#<pIkddFzzNd            SHzNGzp<zhzN        GkzpdGGNdzfz>   ",
"  w2<8pGpzpzpAGF           NSplN9dp9lNNV        GzNdAzAhzzd9f   ",
"  &2:<dHFzzd2pfg           <Ep2;9 FdzNzV        AzFd99dAzzPNY   ",
"  N/GAzF9gf99:92          Agz9#Ng VNzkdp        fVzpldfHzHYzG   ",
"  U2;3Gx29z:8pdN          WANNB:  djzzkv           p9dNNdLUNN   ",
"  QAkdNzd9Gzzddg         BpzAREA  fjAzGdV7G<%CN5    p2zf-zSGJ   ",
"  B9dpzfdzpANpdM         z2zz'P   2dNSd3dNj-*lNNfj  M9FS-pzzG   ",
"  b8dz3wzFGAdzjd        N3dlb/g   9aAzzppzj2zddNdd  Nzzzfdfzz   ",
"  dddgAAgPEHAzzF        A99kGd     mFGlHFN!zz8pzAN  GAzNzHzzz   ",
"  GAhz^EGIGzAAHF       GL2jzAg     NzzdNP'PApdjdNk  AGFGGzddfw  ",
"  )PIz[{FRPSAAGU       VfNzzN      Vd9phNAGAj#3dNh  PPFzGNhpy3  ",
"  HFPA]'GNPPUPY~       gzAAMV                      NVGGzGAFgpp  ",
"  NdNz_PNNGP!NGL      JGGGGk                    GHzAzzhfzzANpk  ",
"  23zIHzzkNGGAzY      LSzFSj                    FGNFGzzdAzGGjM  ",
"  2zzNGfzGAAPGzz     NGANNH                     zzANNNddzzPPSM  ",
"  NddSNFPGPNNNNS     zNzjfG                     GNlNNNfzAzPSld  ",
"  ULzNGlGGGzNNzG     Nkldg                      BSNNNzzzfAfGLJ  ",
"  PUzGzlfGAzNGhw     zdMd                       NGANzAN9zAdzPJ  ",
"  NNNPGNHIGzkzzw                                NAzAGAzGzNfzdz  ",
"  ZEFENHGFAAddjdp    d9lN9                       HBzNzNFzzdphB  ",
"  hSAzzdLNzzd2lz9d    <<2:p                       LzzzzFFNApsh  ",
"  ldzPzNNPGdd9ddVdf    e<dp8y                      df9zPdNf2NN  ",
"  NspANdGAAUHz9ddp9z    ydz8y2                      hdpAdp2hGp  ",
"  Mj=yzdZSSAkwN92<pdV    zGAdjd                      KdNk+ddz   ",
"   04gqjmMehbw42=wpdbu    GzAPNF                      SVfz2dr   ",
"                                                                ",
"                                                                ",
"                                                                ",
"                                                                "
};
