/* XPM */
static char *out[] = {
/* columns rows colors chars-per-pixel */
"64 64 19 1 ",
"  c #73A729",
". c #76AB2C",
"X c #7AAD2E",
"o c #79B02F",
"O c #7CAE30",
"+ c #7DB131",
"@ c #81AE31",
"# c #82B335",
"$ c #88B437",
"% c #85B738",
"& c #89B739",
"* c #86B93A",
"= c #8ABB3D",
"- c #90BC3F",
"; c #8DBE40",
": c #90BF41",
"> c #8DC041",
", c #91C244",
"< c #96C648",
/* pixels */
"OOOOXXXOo@XX@XXXX#XoXoooXXXXXXXX@XoXXXX oooX.X@oXooX...X.XX@o@oo",
"..OO+oX+XX@X=XoXX#=+XXXXXXXXX&XX.X.X;XOX&oXXoX@XX@$X..X@XXXX#XX#",
"O..;%%XX#XXXoX@#+o#+o.. &XX@X=XoXXXo%+OO@oo=X%oX#XooO.%%XX@@#.#X",
"O.O#++XXo#XX@XX%XXX&X$XXoX@X#oooXXooOOOOXX@=@=oX%#XX#O.OXXXX.XXX",
"..O. OXo*#@ooXXoXX#&@OO.Xo@#oooo X@=#OOX$X@@@o@ooXX.%+OOX@@XXX&o",
"OOO. OXXo+@@=Xo@oXX+OOOOX@;@@@#o.X@-&#O@-XXo@oooXXXX XO+.o=XX@%X",
" $@;.XXXoX@oXXXoX+XOOO;O X:#@&%#oX XXO.X@XXoXoo@oXXXoX +XoXXX XX",
"O&@$.OO+oXXXXXoo#XX.OOOO@oo@ooo+#oX.@XX#.XX@=@##XXX#oooOXXXXXXX.",
"oo+oXX+X#oXoXXXX+O%.XOOOOOO$#+OOX=XX@&o@@.XX,%=#X$*OOOX+#X*oo%oo",
"XXX+X.,o&X=@XX.X;+;o+X;O@O@:%%O.X#X.X@oX.XX@o@oo++#++o++$X=o#=Xo",
"..@+X@*+#XXX...XO.OO++X+OOO@@#XO#XXXXX@XXXXX@ooooo++XXX+oX@oX.oo",
"XX=o$oX+Xo#XXXXXOooO+OX+#OO@;@OXX@o@XXXo@@oXoo@oX+X#X+$#X&@oXooX",
"X@ooooXoOX###o...O;O#=.O;O.O;#OOo$o@@XX#o=@oX@@=#$++@X=Xo#Xooo@o",
"X@o@.XXoXX+.XXOOOO.+O+XOOO..X.XXXXo@>@o@@ooXXo@;@=#XXO+Oo@oXoooo",
"#o#oXoXO+XX..OOOOO++OOX..X.O..XXo Xo*XoXoo#=@@o@XO+O..XXo#oXoo@o",
"#&@=@o@=$*OOO+oOooo++XO.OX..X..X#X@@oXX@X@#%XXo@OOOX..&##$@#-@%$",
"##o@oo@&##X@Xo....X++ooX$%.OX.XoX.OO..X.XXXoXX@##*O%XXoX#@X@#@XX",
"XX. ooooXX#.XXX...  .oOO&=OOX#OX..O$X.$OX#@oo.#@O#O#X.X.XX.oooo@",
"Xo.o++#o+#####.#.XX.XOXX@.O.X#O ..@:OX@OX$o@XXXX.X.OX..o..XooX@o",
"X..oXXXX#&X$#XX#OO+%OO..OOOOX.OOO. @XXOX oX@##ooX.X.X@ooXX .XXoX",
"OXO....Oo++ooXoo++O%O&O =OOX XXX.O .XXX..X@Xo@o@$X.++=%*&$.XX=@X",
"..:;OOXoXooXXXoooXOXO.O.@X.X@.XoOOO..XOO@oo@XXX@;X+++%%+#.XXXXX ",
".O$@OXoOXXoXXXX#++X+O.OOoXo&@X=X;OXX&o#@#=@=@oXX*+&$ooo+o oX@XX.",
"OOXO..O*X#&@=X.<$=XX%$.OXXo#@.$XO.X.=@o#XX.o#Xoo++X++++%@@Xo#X.X",
"OXXXX O#XO@.#XX+O#Xo$#oooXoXX#@oOOOOOOO.oo@@oooooo@@ooXXX..o@@X.",
"..XXOO@OOXO.XooX#$#XX##XXXooo=%XOOOO...;+>o@>oXooooooXXXX@X@XoXo",
"O..XOOOX.OOOo+oXX$XXXo+oooo#X++XOOOO.  Oo@@X@ooXoo.XXXX.@oooo@Xo",
"OO+OOO;OOOOOo&#oo#o#o#%-oXX@Xooo.OO#+OO+@.@ooo@X.. @@X.X;%o@##X ",
".O:#.O; +;X..oX.$o#+#o#@@Xo#$oXo%=OO.XX+o.XooX&X@.@&&Xoo@@ X@@oX",
"O..OOOOOOO+XX.XX>$:X@=oXo+Xo@o.XO+OX++X.@o@%@o@@XXX@@o@ooXoXoo@o",
"O... OOO#O.XX#XX+X##o#...$XXoo@@OOXXOO+.@%@%ooXXX@X&@@oX@@oXo@oX",
"OOOO OOO=##.@&XXX.XooX.XXX@XoX.$+.OOOOXXooX@XXXoXoX&@= X=@oo@o@#",
"%+++..O.#X@XXX@X.X..XOOO....=XXoOXXo+oXo.XXO;OXX  XOXX. OO.;#..O",
"+oX.oOO....XXXXO@#XOXXXO.XX.XXXoX+oo+X .OOOOOXX ;.O;OOOX.O.O#OOO",
"+Oo.XO;XX.&X$OXXX&X*+.++OXXXX#X#Xo+XXX XOO.O#XXX;OO@X ;O..OOO+O+",
"$O%OOO;XXX#XXOXXo@#+XX+OXoX##=@=X+*oXo%+& .X;XXX XOOX   ..OOO++O",
"X.+XoX oXXXXOOO.XXXXXX+XO+++@XXX. X XX@.. .XXOX. O X.XXX % O+O;O",
"O#+XOoOX.XXXOO.XXXXXX+O#OOX%.X#XXX..XXOO.OXXX.XOXX;#O#XX *OOO.O.",
"#-=#OO+XXX@X#O*OXXX@*O+++++=XX$X.O.X.O.O%O*+OO+OX.;OO; . oO...OO",
".#XX.++.X&@.#O#OXXo@>+=#+OO#...XO.OOO@OO%O++++OOX..XOOXXooOOOo.O",
"X.OOOXO.o; ...OO&@o@%@#oOOO.@..XOO.O*OOOOO..XO.OooOOoo.Oo..O..OO",
"XXO.O#..XX.OXO%%=#ooooo#O.O:@&%@O;OO+OOOO*OOXXOOooo......O#%#OO.",
"OO.OO%..XXoOXXXO@o@@@X@o#O ;@=#.;#. ..oO.*..O$O+..OOoO..O.%%%+=O",
"X.#OOX.OO+++XO@Ooo@%##&X$OOOOO.OXXX...OO.O.. ;;;O.O+O%O+O ..OOO.",
"XX;XOX X>++;X+=+O.O.XooXOOO O  OXX.XXXOOOO..OOO#o..;#;#;.....*O.",
".ooXXXXX+Xoo.ooXO.OOX++XOOOXOOOOOOOOOXOOOOO..OOO...O+oO+OOOO.*#.",
"ooXoXXo ..XoXoXXX.OOOXXoXO;O;OO OX;OX..O%+*%OO;..X.oOO+O.O. ..O ",
"OOXoXXooX.XXOoOXX...O*XXX.# ;#;OXX+OXX....#OOO#OXO..OOO.OOO.OO..",
"OOO#O; O.;O+OO;O@ OO ; @@OX.OO OXXXXXXXXXoX#X##X..OOOOOO:#++#O.X",
";#@=O+XO.;O;#@%O;.O  O ;@OOO;@OOXX#O++XXXX$XXXXX.X;%+OOO$@O++OO.",
"#OO+OOOXX+OOOOOOO..OOOO.XXXOOOO @XOO++XXXX=oo@+@OOOOOXXXOOOo.O..",
"OXX;#XXXXOOOXXXX OOOO.OOOXXOO O;%#XXO*#ooX##@oOXOOOOXo O.OOX OO.",
"OXOOOOXO+OOOXX+O.OOO*#%OOXOO.O@;o@XX@@o@Xo+XOO#OO.OOX.OO#XOX..X@",
"XX  XOOOOOXXXO#OO. OOOOOXO;OO @ XXXXX@oXo+o#O@XXO#OOXXO;$X&+OX#=",
"...XOOO;;;OO.XOO. O.OOOOXX..X  @XX#X#X#X++$+O#.OO;O#+XX#XXOXOO.O",
"XO;O#XOOO..O.XO#;%OOOOOOOXOOO;@@#@#@@#=#=o*#O@OOOOOO;oOO+>X.X.OO",
".O:&;XOX..OO.OO;%#OOOO*Oo+OOO+o @XXXXX%o+oXOO.OO@X.O@.XXX#XX+XXX",
".OO .ooo.......OOOO.OO%O+OOoO.oOXX.ooXXXoo.X%O@OX.XX..X.XXooo+o+",
"OOOOOOOO..OO......OOO..Oooo ..OOooX.ooXXXX..%@+.X.OX@X.OXXX+++oX",
".XOOOO+XOO.OOOOO..O.O..+%OOOOOOOoXX.oXXXXXX.O.OOX..O&XO@%Xo=+XX+",
"ooO#%O+XXO%+.X++..o.OOO+;OOOO%...O#ooX..X; XXXXOXO....X@+XX*+Xo+",
"ooO++OOXO++OOX+XO%*%#OOOOO.OO*OOO.%OoXo.XO O.XO%@...OO@@%XX+XXXX",
"O...OOO;OOOOX+++O**%+OO%..##+++OOOOo.O+XXX;X#O O+OO. #%+;+.+%+XX",
"O.OOOOO+XXoOXXXXOOOOO.O.  O*+OOOooO.O..XXX@XOO.OOOO..XXo+oX++.XX"
};
