/* XPM */
static char *out[] = {
/* columns rows colors chars-per-pixel */
"64 64 164 2 ",
"   c None",
".  c #0D0C0C",
"X  c #110F0E",
"o  c #11100F",
"O  c #131413",
"+  c #171817",
"@  c #171918",
"#  c #1B1D1C",
"$  c #1B1815",
"%  c #1F211F",
"&  c #20211F",
"*  c #29211C",
"=  c #242422",
"-  c #2C2A26",
";  c #2B2723",
":  c #322A23",
">  c #392E25",
",  c #34302B",
"<  c #433A32",
"1  c #513F31",
"2  c #4B4038",
"3  c #4E4034",
"4  c #574638",
"5  c #604C3C",
"6  c #685747",
"7  c #715848",
"8  c #76604E",
"9  c #756251",
"0  c #7F6652",
"q  c #866F5A",
"w  c #89705C",
"e  c #95765C",
"r  c #A17F64",
"t  c #DC7972",
"y  c #AC8368",
"u  c #B48C6F",
"i  c #B88B73",
"p  c #B89475",
"a  c #C69A7B",
"s  c #C7A07F",
"d  c #CAA07E",
"f  c #FAA66B",
"g  c #FAA96E",
"h  c #E7A67A",
"j  c #FBAD74",
"k  c #FCB57E",
"l  c #2C5A8F",
"z  c #2E5D90",
"x  c #305E91",
"c  c #3B6797",
"v  c #31639B",
"b  c #3C6A9F",
"n  c #366DAC",
"m  c #3468A3",
"M  c #376EB1",
"N  c #386FB0",
"B  c #3A73B5",
"V  c #3B76BC",
"C  c #3D79BE",
"Z  c #4570A2",
"A  c #437CBD",
"S  c #487CB9",
"D  c #3F7CC0",
"F  c #407DC0",
"G  c #4981BF",
"H  c #5484BD",
"J  c #5788BF",
"K  c #5D8BBE",
"L  c #6087B6",
"P  c #648FBE",
"I  c #6990BD",
"U  c #7493BC",
"Y  c #799ABF",
"T  c #7A92B4",
"R  c #4680C0",
"E  c #9F9496",
"W  c #989FAE",
"Q  c #9594A5",
"!  c #8999B3",
"~  c #84A0BF",
"^  c #8AA4BF",
"/  c #9EAEBE",
"(  c #97A6B9",
")  c #AAA6AA",
"_  c #BDB3AE",
"`  c #ACB5BE",
"'  c #A7B3BE",
"]  c #B9B6BC",
"[  c #C9A38D",
"{  c #D1A581",
"}  c #D5A986",
"|  c #DBAE89",
" . c #D8AA84",
".. c #DDB18A",
"X. c #D9B79F",
"o. c #EAAC8C",
"O. c #E5AB8B",
"+. c #FFAB8F",
"@. c #E2B48C",
"#. c #FCB581",
"$. c #FDBD8C",
"%. c #F6B381",
"&. c #FFAE91",
"*. c #EDBA92",
"=. c #F3B594",
"-. c #FFB494",
";. c #F3BC95",
":. c #FEBA97",
">. c #FEBC99",
",. c #F4B398",
"<. c #C6B2A6",
"1. c #D8BBA6",
"2. c #E4BEA3",
"3. c #FEC394",
"4. c #F6C299",
"5. c #FEC49B",
"6. c #FFC99E",
"7. c #F7C8A0",
"8. c #FFCBA1",
"9. c #FECBAF",
"0. c #FFD4B5",
"q. c #FED2BB",
"w. c #95A8C3",
"e. c #AEB7C1",
"r. c #AFB8C0",
"t. c #B3BCC3",
"y. c #B8BFC7",
"u. c #B8C0C7",
"i. c #BBC3CA",
"p. c #C0C7CE",
"a. c #C1C8CF",
"s. c #C5CBD2",
"d. c #C9CFD5",
"f. c #CBD1D6",
"g. c #CFD5D9",
"h. c #D1D6DA",
"j. c #D5DADE",
"k. c #E9D9CF",
"l. c #FFD6C2",
"z. c #E0D9D6",
"x. c #FFE1C9",
"c. c #EFE3DB",
"v. c #EFE1D5",
"b. c #FFE3D4",
"n. c #FFEBDF",
"m. c #D7DCE0",
"M. c #DADEE2",
"N. c #DEE1E5",
"B. c #DFE2E8",
"V. c #E1E4E7",
"C. c #E3E6EA",
"Z. c #E6E9EC",
"A. c #EAECEE",
"S. c #EBE8E7",
"D. c #F3EFEB",
"F. c #FFF3EA",
"G. c #ECEEF1",
"H. c #EFF1F3",
"J. c #F3F4F6",
"K. c #FEFAF7",
"L. c #F6F7F8",
"P. c #F7F8F9",
"I. c #FEFEFE",
"U. c #FBF7F4",
/* pixels */
"                                                                                                                                ",
"                                                                                                                                ",
"                                                                  @ . . . + # #                                                 ",
"                                                          # # # # @ . . . + %                                                   ",
"                                                      . O # # # # + . . . + @ @ @ . .                                           ",
"                                                  + . . o # % % # @ . . . O # # # . . .                                         ",
"                                                & # O . + , & = 4 ; . . . + # # # . .                                           ",
"                                              - 9 d 3 q @.a q | 4.6 : - O + # % # . . . #                                       ",
"                                            2 d 4.6.4.6.6.6.6.8.8.@...@.: @ # # # . . . #                                       ",
"                                            ..6.8.6.4.8.8.8.6.8.6.6.6.6.{ 9 = # # . . . #                                       ",
"                                          5.6.6.8.8.8.8.8.8.6.8.6.6.6.6.4.< # # @ . . .                                         ",
"                                          6.6.6.8.8.8.8.8.8.6.8.6.6.6.8.4.9 = # @ . . . #                                       ",
"                                          6.6.6.6.8.6.8.8.6.8.6.8.6.8.5.6.} - # @ . . . #                                       ",
"                                          5.6.{ e 4.8.8.6.6.{ p 6.6.6.5.5.w = # # . . O #                                       ",
"                                          5.6.4.5 4 4.6.6.e > u 6.6.5.5.5.;.1 % # . . .                                         ",
"                                          5.3.3.4.s 4.6.6.d @.3.5.5.5.>.:.O., = # . . O                                         ",
"                                          :.>.=.4  .5.6.5. .3  .8.8.>.>.-.o.a i 1 . . O                                         ",
"                                          :.:.;.r *.5.6.6.=.y *.>.>.>.-.-.&.-.:.O.* . O                                         ",
"                                          -.-.>.>.8.5.8.6.6.5.5.>.:.-.&.&.&.&.-.:.7 O                                           ",
"                                          -.&.>.5.5.t 6.6.6.5.5.>.:.&.&.&.&.&.-.:.u                                             ",
"                      6.6.6.6.6.          -.:.>.5.5.5.6.6.6.5.5.8.-.-.&.&.&.&.-.>.          C V D                               ",
"                    6.6.6.5.j 3.8.        -.q.F.0.6.8.8.8.8.8.0.b.b.9.-.&.&.=.,.      D C D D D C                               ",
"                    6.3.3.g k j 8.        q.I.I.K.x.8.6.8.x.F.I.I.I.K.l.-.,.  D D D D V C D C C V V                             ",
"                    k 3.#.g j $.8.        9.A.A.G.H.c.v.G.H.G.A.m.M.g.z.:.Q A D D V V V C V C V C C                             ",
"                    f j j f $.k 6.          k.G.A.A.A.A.Z.A.H.H.m.C.j.v.E m A A C V C V V V V V C V                             ",
"                      $.5.%.h [ X.          U s.C.P.K.I.K.I.K.P.D.S.h.! c N V V V V V V V V V V V C                             ",
"                        W T S A C     V C V V A Z K w.e.] <.) ( U H S x B C C V V V C C C V C V V D F                           ",
"                        C A A C C C C D C C C C n v V V v v v v M B v n V C C V V         D V V V V C                           ",
"                        C C C C V C D F D C C V V v v z n V V N z z n V A C C C             C C A G S                           ",
"                        C D D C F C D D D C C C A V m N V C V V B B C C C C C V C           ! ) <.1.2.7.                        ",
"                        C C D C F D F D C C C V V C C C C C C C C C A D C C V C             6.6.5.8.8.8.                        ",
"                        F C C C C A D D C C C C C C C C V C C C C C C C D C C C C         6.6.6.6.6.8.8.                        ",
"                        C V C A V V V C C C       C C V V C C D D C C C C F C C C           6.6.6.6.6.6.                        ",
"                          C C C V V V             C C C V C D V C V V C D C V C C             6.6.6.8.8.                        ",
"                                                  F D C V C C C C C V C C C C V                                                 ",
"                                                  D F C D V C V C C C C V V V V V                                               ",
"                                                    C C C C V V C C D D C D C V D                                               ",
"                                                    C D F C C C C F F V F C C V C                                               ",
"                                                    F F R J P Y ~ ^ w.~ ~ Y I R C                                               ",
"                                                    K Y / ' e.t.i.i.i.i.y.t.t.` / (                                             ",
"                                                  ` ` ` i.M.A.J.L.L.L.L.J.G.G.j.y.e.e.e.                                        ",
"                                              ` ' t.g.G.I.I.I.I.K.A.Z.B.B.Z.G.L.P.G.j.t.` `                                     ",
"                                            ` r.h.P.I.I.I.I.I.I.I.I.P.P.P.J.H.H.I.I.P.P.h.t.r.                                  ",
"                                          ` t.N.I.I.I.I.I.I.I.I.I.J.A.Z.Z.H.P.I.I.I.I.I.I.A.i.r.                                ",
"                                        e.` C.I.I.I.I.I.I.I.I.I.I.P.H.Z.G.Z.J.I.I.I.I.I.I.I.P.i.`                               ",
"                                        e.j.I.I.I.I.I.I.I.I.A.N.m.j.j.j.m.C.H.I.I.I.I.I.I.I.I.I.s.`                             ",
"                                      ' i.P.I.I.I.I.I.P.N.t.` e.e.e.r.r.e.` ` i.V.L.I.I.I.I.I.I.P.i.`                           ",
"                                      ` f.I.I.I.I.I.K.s.` i.g.V.Z.Z.Z.A.Z.N.f.t.t.i.h.P.I.I.I.I.I.P.s.                          ",
"                                      ` M.I.I.I.I.I.s.` f.P.I.I.P.C.C.C.L.I.I.P.M.i.` d.L.I.I.I.I.I.                            ",
"                                      t.A.I.I.I.I.J.r.s.I.I.I.I.J.A.G.L.P.I.I.I.I.L.g.e.a.P.I.I.                                ",
"                                      ` A.I.I.I.I.A.` N.I.I.I.N.` ` ` ` d.J.I.I.I.I.I.j.t.d.I.                                  ",
"                                      ` N.I.I.I.I.G.` M.I.I.I.P.A.H.C.h.t.i.L.I.I.I.I.I.a.` J.                                  ",
"                                      ` d.I.I.I.I.J.t.a.P.I.J.J.P.I.I.I.V.t.M.I.I.I.I.I.C.` d.                                  ",
"                                      ` i.I.I.I.I.I.h.r.s.L.A.B.B.G.I.I.H.t.j.I.I.I.I.I.C.`                                     ",
"                                      ` t.A.I.I.I.I.I.h.t.i.d.j.B.Z.C.f.t.t.J.I.I.I.I.I.p.'                                     ",
"                                        ' t.P.I.I.I.I.I.C.s.t.t.r.r.r.t.i.A.I.I.I.I.I.C.` `                                     ",
"                                          ` h.I.I.I.I.I.K.G.Z.Z.C.C.Z.J.P.I.I.I.I.I.P.i.`                                       ",
"                                          ` t.j.P.I.I.P.I.G.C.V.Z.H.I.I.I.I.I.I.I.J.i.t.t.                                      ",
"                                            ` ` g.P.L.C.G.G.P.P.P.I.I.I.I.I.I.I.V.t.` `                                         ",
"                                              ' e.i.m.Z.G.C.V.V.B.Z.L.I.I.H.N.i.` `                                             ",
"                                                  ` ` ` t.f.N.A.G.Z.M.d.t.` t.` e.                                              ",
"                                                      ` ` ` ` ` e.` ` t.t.e.                                                    ",
"                                                                                                                                ",
"                                                                                                                                "
};
