/* XPM */
static char *out[] = {
/* columns rows colors chars-per-pixel */
"64 64 215 2 ",
"   c None",
".  c #010101",
"X  c gray1",
"o  c #040404",
"O  c #060606",
"+  c #080707",
"@  c #0E0D0D",
"#  c #191817",
"$  c #1E1D1D",
"%  c #212120",
"&  c #292726",
"*  c #302E2D",
"=  c #353332",
"-  c #4A4746",
";  c #4F4C4B",
":  c #52504F",
">  c #53514F",
",  c #535150",
"<  c #545251",
"1  c #555251",
"2  c #565352",
"3  c #585655",
"4  c #5B5856",
"5  c #5F5C5A",
"6  c #5F5C5B",
"7  c #5F5D5B",
"8  c #605D5B",
"9  c #605D5C",
"0  c #615E5C",
"q  c #615E5D",
"w  c #625F5D",
"e  c #635F5D",
"r  c #625F5E",
"t  c #635F5E",
"y  c #625F5F",
"u  c #63605E",
"i  c #63605F",
"p  c #646160",
"a  c #656160",
"s  c #666361",
"d  c #666362",
"f  c #676462",
"g  c #676463",
"h  c #676563",
"j  c #686463",
"k  c #686563",
"l  c #686564",
"z  c #696564",
"x  c #686664",
"c  c #696664",
"v  c #6B6766",
"b  c #6D6A68",
"n  c #6F6B6A",
"m  c #6F6C6A",
"M  c #716E6C",
"N  c #716F6C",
"B  c #726E6C",
"V  c #726E6D",
"C  c #736F6E",
"Z  c #7F6C68",
"A  c #7E6D69",
"S  c #7F6E69",
"D  c #7E6F6B",
"F  c #73706E",
"G  c #74706E",
"H  c #74706F",
"J  c #75716F",
"K  c #7D706D",
"L  c #7E706C",
"P  c #7C706E",
"I  c #7E716E",
"U  c #7F726F",
"Y  c #757170",
"T  c #767270",
"R  c #767271",
"E  c #767371",
"W  c #777371",
"Q  c #777372",
"!  c #777472",
"~  c #787373",
"^  c #7D7370",
"/  c #7E7370",
"(  c #7F7370",
")  c #787472",
"_  c #797472",
"`  c #787473",
"'  c #797473",
"]  c #797573",
"[  c #7A7472",
"{  c #7B7472",
"}  c #7A7573",
"|  c #797672",
" . c #797673",
".. c #7A7673",
"X. c #7B7673",
"o. c #7C7471",
"O. c #7D7471",
"+. c #7F7470",
"@. c #7D7472",
"#. c #7C7572",
"$. c #7C7573",
"%. c #7D7573",
"&. c #7E7572",
"*. c #7F7572",
"=. c #7E7673",
"-. c #797574",
";. c #7A7574",
":. c #797674",
">. c #797774",
",. c #7A7674",
"<. c #7B7674",
"1. c #7A7774",
"2. c #7B7774",
"3. c #7A7675",
"4. c #7B7775",
"5. c #7A7776",
"6. c #7B7776",
"7. c #7C7674",
"8. c #7D7674",
"9. c #7C7774",
"0. c #7D7774",
"q. c #7C7775",
"w. c #7D7775",
"e. c #7E7674",
"r. c #7E7774",
"t. c #7F7774",
"y. c #7E7775",
"u. c #7F7775",
"i. c #7C7776",
"p. c #7B7875",
"a. c #7A7876",
"s. c #7B7876",
"d. c #7C7875",
"f. c #7D7875",
"g. c #7C7975",
"h. c #7C7876",
"j. c #7D7876",
"k. c #7C7976",
"l. c #7D7976",
"z. c #7C7877",
"x. c #7D7877",
"c. c #7C7977",
"v. c #7D7977",
"b. c #7E7876",
"n. c #7E7877",
"m. c #7E7977",
"M. c #7F7977",
"N. c #7D7A77",
"B. c #7D7B77",
"V. c #7E7A77",
"C. c #7E7B77",
"Z. c #7D7978",
"A. c #7E7878",
"S. c #7E7978",
"D. c #7D7A78",
"F. c #7E7A78",
"G. c #7F7A78",
"H. c #7E7B78",
"J. c #7F7B78",
"K. c #7E7A79",
"L. c #7E7B79",
"P. c #7F7B79",
"I. c #7F7B7A",
"U. c #826C67",
"Y. c #816E69",
"T. c #806F6B",
"R. c #826F6A",
"E. c #836F6A",
"W. c #81716D",
"Q. c #82716D",
"!. c #80716E",
"~. c #81736F",
"^. c #84726E",
"/. c #84736F",
"(. c #847370",
"). c #817471",
"_. c #827470",
"`. c #817572",
"'. c #807673",
"]. c #807674",
"[. c #817774",
"{. c #807976",
"}. c #817976",
"|. c #807A78",
" X c #807B78",
".X c #807B79",
"XX c #807B7A",
"oX c #807C79",
"OX c #807C7A",
"+X c #817C7A",
"@X c #807D7A",
"#X c #817D7A",
"$X c #817D7B",
"%X c #817E7B",
"&X c #817D7C",
"*X c #817E7C",
"=X c #827E7C",
"-X c #837F7C",
";X c #84807E",
":X c #888380",
">X c #898481",
",X c #8A8582",
"<X c #8B8683",
"1X c #8B8684",
"2X c #8C8784",
"3X c #8C8785",
"4X c #8C8885",
"5X c #8D8885",
"6X c #8D8886",
"7X c #8D8986",
"8X c #8E8986",
"9X c #8E8987",
"0X c #8F8A87",
"qX c #908B88",
"wX c #918C89",
/* pixels */
"                                                                                                                                ",
"                                                                                                                                ",
"                                                                                                                                ",
"                                                                                                                                ",
"                                                                                                                                ",
"                      6.h.3.F.F.d.OXZ.K.h.j.4.1.d.v.F.>.4.m.-.k.,.x.V.x.d.4.n.l.c.l.oX-Xh.3.4.4.F.OXOXC.                        ",
"                    z.h.h.OXF.4.4.v.h.h.h.v.j.4.h.,.4.h.) v.4.] ] h.v.4.h.v.v.h.F.P.v.OXF.v.F.v.v.h.4.h.                        ",
"                    v.v.4.v.v.v.$Xh.) ,.4.F.P.v.v.v.h.4.,.4.h.,.h.h.F.v.h.F.P.4.v.F.h.v.v.4.4.v.v.h.h.v.5.                      ",
"                    s.h.h.v.F.P.qXP.W 4.v.h.v.) 4.v.v.P.,.4.h...h.F.F.F.m.F.P.v.F.F.h.P.4.4.v.v.v.4.h.v.v.                      ",
"                    ] v.v.F.F.OXwX#Xh.v.$XP.F.P.F.F.F.v.v.4.h.] ,.F.v.4.P.v.h.4.h.F.v.P.F.v.OX` 3.v.v.F.6.                      ",
"                    -.4.v.v.F.$XwXOX] OXP.F.OXP.OXP.F.h.h.h.v.v.P.F.v.h.F.v.h.F.v.P.OXF.P.F.h.,.v.P.v.4.d.                      ",
"                    v.h.OXOXP.OXwXOXW F.OXOXF.P.F.v.h.4.,.4.v.F.OXOXP.4.P.F.P.V.v.F.P.P.P.v.h.v.h.v.v..XF.                      ",
"                    h.] 3.3.F.m.5XP.h.v.F.OXP.v.OXP.4.,.4.h.h.F.P.F.v.] v.OXF.P.F.v.4.F.v.,.4.,.) h.F.h.F.                      ",
"                    4.h.v.4.h.J.wX.Xh.,.v.G.P.$XF.v.] ] v.v.F.F.$XP.v.H h.P.$XF.h.,.] ) ,.4.,.4.v.F.h.F.oX                      ",
"                    4.4.F.h.,.G.0XOXh.h.v.P.P.F.v.4.h.v.v.P.F.P.OXm.v.4.v.v.$XF.4.4.4.,.<.v.h.v.v.4.4.F.OX                      ",
"                    F.v.h.h.,.h.7XF.v.F.P.F.h.F.h.v.h.h.F.v.m.v.4.4.4.,.F.h.P.v.,.v.4.v.4.h.,.v.h.,.,.4.&X                      ",
"                    F.4.h.v.4._ <Xh.h.4.v.h.4.h.:.,.v.h.h.v.4.v.,.4.,.4.4.4.h.4.,.h.h.,.4.4.) ,.h.4.4.h.#X                      ",
"                    F.v.F.v.v.v.6XF.h.v.h.4.4.0 % - 4.h.v.v.4.] W ) h.h.,.,.h.,.h.h.m & * G v.v.4.h.v.h.F.                      ",
"                    P.v.4.F.F.F.9Xh.h.F.h.h.J $ . + T v.4.4.F.h.,.4.v.v.,.4.) 4.P.4.; . X 4 P.v.h.F.h.v.v.                      ",
"                    $Xv.4.4.h.F.2XP.v.v.4.,.] = o # W OXv.h.v.,.v.h.h.] v.h.] v.P.P.9 O @ f F.v.v.,.h.] k.                      ",
"                    P.$X=Xv.h..X0X=XF.] } 4.h.4.J 4.4.F.4.4.4.F.v.v.h.] _ ,.4.j.h.4.W w v ,.v.v.P.v.F.h.z.                      ",
"                    F.P.P.3.v.v.8X#Xv.] <.b.b.q.,.h.h.4.4.v.,.F.h.,.v.F.v.4.h.4.v.v.,.T ,.4.h.<.l.h.h.h.i.                      ",
"                    h.4.v.-.,.v.8XF.P.|.e.^ [.=.{ v.h.] 4.P.h.4.P.P.v.F.F.h.h.4.F.F.q.h.v.7.%.&.o.8.d.h.d.                      ",
"                    ] 4.h.) h.F.8XOXv.=.I Q.^._.O.j.l.4.4.P.h.z.F.F.F.v.F.v.h.h.q.P.h.h.q.@.).W.!.( #.<.F.                      ",
"                    h.4.4.,.h.V.2Xv.<.&.~.R.U.A ^ 0.v.4.v.h.h.] ] h.] v.4.P.v.v.h.4.h.q.y.+.T.E.Y.L o.w.d.                      ",
"                    v.P.v.4.4.$X<Xv.q.=.`.(./.U t.w.h.v.h.h.F.4.W ,.4.h.4.v.h.,.3.v.l.,.0.*.D Z S K u.q.2.                      ",
"                    .XP.] ] v.%X6XF.h.f.e.'.].r.b.q.h.4.F.OXF.h.v.F.v.h.v.h.h.Q ] h.h.4.m.{.^ P / }.M.,.d.                      ",
"                    4.4.v E 4.=X0Xv.4.h.9.l.<.V.h.h.v.4.F.$XOXF.$X=XF.F.F.v.4.,.v.v.h.h.P.OX} $.[ w.v.h.F.                      ",
"                    W r c T 4.OX8Xv.v.F.4.h.4.P.F.v.h.4.v.F.P.=XP.v.,.F.h.h.4.] F.P.P.F.F.h.4.F.,.h.m.v.h.                      ",
"                    Y V ,.4.] P.0XP.4.h.h.v.v.F.F.,.h.F.v.$XOXF.F.P.] h.,.,.h.v.OXh.P.OX$Xh.h.4.] ] h.v.V.                      ",
"                    F.OXh.4.v.$X<XP.F.v.P.P.h.h.F.h.v.4.v.4.v.3.-.T J G W ] 3.h.h.P.F.P.v.4.2.] ] ,.h.+X6.                      ",
"                  m.P.h.) v.F.=XqX$X$XP.F.4.W P.v.,.v.4.B 2 , 3 : < > : > : 1 M F.F.P.v.v.4.4.4.4.h.4.v.) y                     ",
"                .Xh.4.4.,.W v.=X9XOXP.P.F.h.4.v.v.v.v.v.4.z d p w f f 7 p g i J 4.F.4.F.v.4.v.v.4.v.h.v.Y a                     ",
"                s.) W ] G r ,.;X0XP.F.P.F.F.OXOXF.4.v.h.h.4.h.) ,.) ] h.,.,.OXF.4.4.4.h.] 4.P.F.F.4.v.h.T j h.                  ",
"              h.h.,.] n 9 H h.#X2XOX$XoXOXh.OXP.OXF.v.4.h.v.OXF.) 4.v.4.h.F.OXOXF.h.v.4.,.,.4.] 4.4.q.4.F l 4.4.                ",
"              v.P.F.J 9 F h.F.G.,Xh.OXP.v.] OXP.h.F.] } h.h.F.h.h.P.OXF.F.G.h.P.F.q.4.,.h.,.,.H ,.4.h.h.C z ,.2.                ",
"            .Xv.h.4.b G h.4.h..X>X4.,.F.,.h.P.4...v.v.F.v.4.v.P.,.v.F.v.4.h.G.4.OXm.h.v.v.h.4.4.v.v.F.v.R k ] ,.X.              ",
"          6.h.h.4.q.v.h.4.h.h.$X5Xv.4.,.v.h.,.<.4.v.,.4.h.v.P.$X3.F.P.P.h.F.OXv.F.v.v.,.h.v.F.v.F.F.v..Xd.N 4.] ` N.            ",
"        J.F.v.h.1.  ,.4.` 4.h.P.2Xh.v.) ] ] h.h.F.G.P.P.F.F.P.F.OXOXF.h.v.v.v.,.,.F.v.4.P.v.F.F.F.F.v.4.'   ] ] ] 4.            ",
"        4.F.4.z.z.  v.h.-.h.v.F.1Xh.h.W W ] h.v.j.OXF.F.$X$XF.OXOXOXh.v.F.h.v.4.v.F.OXv.h.,.h.v.v.v.v.,.g.  h.v.4.h.Z.          ",
"        F.F.P.L.D.  v.v.v.h.h.OX<XJ.F.4.,.) 4.h.h.h.v.F.v.v.h.4.F.OXP.F.F.h.F.h.h.F.F.h.P.P.OXOXP.P.v.v.i.  +XS.v.,.z.          ",
"        XXP.        F.P.v.,.F.$X0XF.4.h.F.,.,.,.v.F.P.P.h.v.h.F.v.P.P.h.v.v.F.v.j.F.4.,.h.h.P.OXF.h.4.4.}   A.  x.4.a.          ",
"          B.        v.v.P.h.v.+X3Xh.P.F.4.) ) 4.F.h.v.h.h.h.v.v.v.F.P.F.P.P.P.v.h.F.4.) ,.v.OXF.h.F.P.v.|                       ",
"                    .XP.v.h.v.oX7XP.F.P.v.,.4.h.v.F.,.4.h.v.h.4.P.$XOXF.F.F.v.P.F.4.,.,.,.,.F.v.F.OXP.P.                        ",
"                    F.v.F.P.F.$X0XOXP.OXv.F.j.h.) v.F.h.4.4.h.4.@XOXm.) F.P.v.P.P.F.h.] W ,.h.v.h.F.OXP.                        ",
"                    F.h.v.OXOX*X4XP.v.h.,.h.F.] 4.v.v.h.4.h.v.v.P.F.F.] ,.,.v.F.F.v.4.,.] ,.4.h.4.4.4.h.                        ",
"                    ) 4.F.F.F.oX8XOXh.4.4.h.F.h.P.h.v.v.4.F.4.v.P.OXh.] ,.h.,.,.h.,.4.v.v.4.,.) 4.h.F.v.                        ",
"                    4.4.4.h.v.v.6XF.h.m.v.F.4.3.v.d.v.h.h.v.v.4.h.v.h.v.,.W 4.,.4.,.,.,.4.,.] W v.q.4.v.                        ",
"                    ] ,.] 4.,..X8XOXF.F.F.v.h.] ,.,.4.v.v.4.] W 4.,.j.4.] 4.h.,.4.,.4.] ] v.h.] v.h.h.v.                        ",
"                    3.4.T ) 4.P.7XF.v.v.h.,.J ] v.v.h.h.4.4.,.4.h.) ) ,.4.h.v.4.,.,.,.Y 6.F.v.v.4.F.v.F.                        ",
"                    h.d.h.h.h.F.>XP.F.,.4.) ] h.,.] 4.h.v.F.4.h.,.) ] ,.4.v.v.4.} ) ) ] h.P.F.h.] h.,.F.                        ",
"                    F.P.OXP.4.v.1XF.h.) ] 4.4.,.J ] ] ] h.h.,.h.h.h.,.4.v.h.F.v.,.W ,.] ] ,.F.4.h.v.v.k.                        ",
"                    S.v.F.,.) F.:X) ] W 4.h.,.] ,.h.h.h.v.h.v.h.h.) ) ,.h.F.4.,.4.4.h.P.F.h.4.,.F.P..Xh.                        ",
"                    V.v.4.h.h.,.,.] ,.,.4.h.4.4.h.j.F.h.h.h.P.4.,.v.v.F.F.v.4.,.4.v.h.h.F.P.h.h.F.v.F.v.                        ",
"                      z.v.h.] ;.x.h.4.h.H.2.T G J ! F.P.V.S.h.p.k.i.I. Xp.' G J H ! h.,.P.P.x.h.k.q.F.                          ",
"                                            q 9 6 9                         8 6 5 t                                             ",
"                                          h l s z x                       e a u p w                                             ",
"                                          k.v.) ,. .                      ~ ) ] 4.1.                                            ",
"                                        -.,.v.4.h.:.                      s.] ,.h.h.p.                                          ",
"                                        h.F.h.4.4.i.                      1.:.4.P.F.v.                                          ",
"                                            c.}                               6.s.h.                                            ",
"                                                                                                                                ",
"                                                                                                                                ",
"                                                                                                                                "
};
